<?xml version="1.0" encoding="UTF-8" standalone="no"?>
<svg
   xmlns:dc="http://purl.org/dc/elements/1.1/"
   xmlns:cc="http://creativecommons.org/ns#"
   xmlns:rdf="http://www.w3.org/1999/02/22-rdf-syntax-ns#"
   xmlns:svg="http://www.w3.org/2000/svg"
   xmlns="http://www.w3.org/2000/svg"
   xmlns:sodipodi="http://sodipodi.sourceforge.net/DTD/sodipodi-0.dtd"
   xmlns:inkscape="http://www.inkscape.org/namespaces/inkscape"
   width="22.019131cm"
   height="13.793044cm"
   viewBox="0 0 1151 709.35655"
   version="1.1"
   id="svg4172"
   inkscape:version="0.91 r13725"
   sodipodi:docname="Soccer_field_-_empty.svg"
   style="stroke:#ffffff">
  <metadata
     id="metadata4214">
    <rdf:RDF>
      <cc:Work
         rdf:about="">
        <dc:format>image/svg+xml</dc:format>
        <dc:type
           rdf:resource="http://purl.org/dc/dcmitype/StillImage" />
        <dc:title></dc:title>
      </cc:Work>
    </rdf:RDF>
  </metadata>
  <defs
     id="defs4212" />
  <sodipodi:namedview
     pagecolor="#ffffff"
     bordercolor="#666666"
     borderopacity="1"
     objecttolerance="10"
     gridtolerance="10"
     guidetolerance="10"
     inkscape:pageopacity="0"
     inkscape:pageshadow="2"
     inkscape:window-width="1838"
     inkscape:window-height="1053"
     id="namedview4210"
     showgrid="false"
     fit-margin-top="0"
     fit-margin-left="0"
     fit-margin-right="0"
     fit-margin-bottom="0"
     inkscape:zoom="1.230023"
     inkscape:cx="390.77063"
     inkscape:cy="251.42013"
     inkscape:window-x="73"
     inkscape:window-y="-9"
     inkscape:window-maximized="1"
     inkscape:current-layer="svg4172" />
  <!--图纸区-->
  <rect
     x="0.5"
     y="-5.4090686"
     width="1150"
     height="720"
     id="rect4174"
     style="fill:none" />
  <!--球场框和中线-->
  <path
     d="m 575.5,14.590931 -525,0 0,679.999999 1050,0 0,-679.999999 -525,0 0,679.999999 z"
     id="path4176"
     style="fill:none;fill-opacity:0;stroke:#ffffff;stroke-width:2"
     inkscape:connector-curvature="0" />
  <!--中线-->
  <circle
     cx="575.5"
     cy="354.59094"
     r="91.5"
     id="circle4178"
     style="fill-opacity:0;stroke:#ffffff;stroke-width:2" />
  <circle
     cx="575.5"
     cy="354.59094"
     r="2"
     id="circle4180"
     style="fill:#ffffff;stroke:#ffffff" />
  <!--罚球点-->
  <circle
     cx="160.5"
     cy="354.59094"
     r="2"
     id="circle4182"
     style="fill:#ffffff;stroke:#ffffff" />
  <circle
     cx="990.5"
     cy="354.59094"
     r="2"
     id="circle4184"
     style="fill:#ffffff;stroke:#ffffff" />
  <!--球门-->
  <path
     d="m 50.5,318.99093 -10,0 0,72.2 10,0 z"
     id="path4186"
     inkscape:connector-curvature="0"
     style="fill-opacity:0;stroke:#ffffff;stroke-width:2" />
  <path
     d="m 1100.5,318.99093 10,0 0,72.2 -10,0 z"
     id="path4188"
     inkscape:connector-curvature="0"
     style="fill-opacity:0;stroke:#ffffff;stroke-width:2" />
  <!--球门区-->
  <path
     d="m 50.5,263.99093 55,0 0,182.2 -55,0 z"
     id="path4190"
     inkscape:connector-curvature="0"
     style="fill-opacity:0;stroke:#ffffff;stroke-width:2" />
  <path
     d="m 1100.5,263.99093 -55,0 0,182.2 55,0 z"
     id="path4192"
     inkscape:connector-curvature="0"
     style="fill-opacity:0;stroke:#ffffff;stroke-width:2" />
  <!--禁区 -->
  <path
     d="m 50.5,153.99093 165,0 0,402.2 -165,0 z"
     id="path4194"
     inkscape:connector-curvature="0"
     style="fill-opacity:0;stroke:#ffffff;stroke-width:2" />
  <path
     d="m 1100.5,153.99093 -165,0 0,402.2 165,0 z"
     id="path4196"
     inkscape:connector-curvature="0"
     style="fill-opacity:0;stroke:#ffffff;stroke-width:2" />
  <path
     d="m 215.5,281.46593 a 91.5,91.5 0 0 1 0,146.25 z"
     id="path4198"
     style="fill:none;stroke:#ffffff;stroke-width:2"
     inkscape:connector-curvature="0" />
  <path
     d="m 935.5,281.46593 a 91.5,91.5 0 0 0 0,146.25 z"
     id="path4200"
     style="fill:none;stroke:#ffffff;stroke-width:2"
     inkscape:connector-curvature="0" />
  <!--角球弧-->
  <path
     d="m 50.5,24.590931 a 10,10 0 0 0 10,-10 l -10,0 z"
     id="path4202"
     inkscape:connector-curvature="0"
     style="fill-opacity:0;stroke:#ffffff;stroke-width:2" />
  <path
     d="m 60.5,694.59093 a 10,10 0 0 0 -10,-10 l 0,10 z"
     id="path4204"
     inkscape:connector-curvature="0"
     style="fill-opacity:0;stroke:#ffffff;stroke-width:2" />
  <path
     d="m 1100.5,684.59093 a 10,10 0 0 0 -10,10 l 10,0 z"
     id="path4206"
     inkscape:connector-curvature="0"
     style="fill-opacity:0;stroke:#ffffff;stroke-width:2" />
  <path
     d="m 1090.5,14.590931 a 10,10 0 0 0 10,10 l 0,-10 z"
     id="path4208"
     inkscape:connector-curvature="0"
     style="fill-opacity:0;stroke:#ffffff;stroke-width:2" />
</svg>
